<svg xmlns="http://www.w3.org/2000/svg" width="296" height="60" viewBox="0 0 296 60" fill="none"><path d="M17.0617 28.8931L34.1267 0.727783H0.00012207L17.0617 28.8931Z" fill="#2572FF"></path><path d="M42.9173 0.727783L21.1359 38.3892L28.0857 50.1253L39.1794 30.6239L51.032 50.1253L78.8845 0.727783H65.7471L48.8719 30.0414L43.9092 22.3327L55.9382 0.727783H42.9173Z" fill="#2572FF"></path><path d="M86.507 35.736H75.4049C76.1509 32.7082 77.9939 31.2601 81.0217 31.2601C84.2251 31.2601 86.1559 32.7959 86.507 35.736ZM91.334 38.8516V37.974C91.334 31.2162 87.4724 27.3107 80.934 27.3107C74.615 27.3107 70.2707 31.9183 70.2707 38.2373C70.2707 44.8634 74.4395 49.1638 80.934 49.1638C85.4977 49.1638 88.8327 47.1892 91.1146 43.1081L87.2091 40.9141C85.7171 43.7225 83.8302 44.9073 80.8462 44.9073C77.4673 44.9073 75.3171 42.6693 75.0977 38.8516H91.334ZM100.798 15.1116H96.1462V48.3301H100.798V45.6972C102.465 48.0229 104.659 49.1638 107.512 49.1638C113.172 49.1638 116.771 45.0828 116.771 38.1495C116.771 31.6111 113.041 27.3107 107.687 27.3107C104.352 27.3107 101.895 28.7588 100.798 31.3478V15.1116ZM100.666 38.1056C100.666 33.8491 102.772 31.4356 106.239 31.4356C109.75 31.4356 111.9 33.9807 111.9 38.2812C111.9 42.6254 109.881 45.0389 106.371 45.0389C103.123 45.0389 100.666 42.406 100.666 38.1056ZM149.508 44.0735C152.58 41.0018 154.247 37.0086 154.247 32.6643C154.247 28.2322 152.536 24.1512 149.332 21.0356C146.173 17.92 142.004 16.2525 137.484 16.2525C132.964 16.2525 128.752 17.92 125.592 21.0356C122.389 24.1512 120.721 28.2322 120.721 32.6643C120.721 37.0963 122.389 41.1773 125.592 44.293C128.708 47.3647 133.008 49.0761 137.221 49.0761C140.293 49.0761 143.145 48.374 145.997 46.8381L150.078 51.2702H156.178L149.508 44.0735ZM143.145 37.0963H136.958L142.575 43.152C140.995 43.9419 139.415 44.3368 137.616 44.3368C130.946 44.3368 126.031 39.1588 126.031 32.6643C126.031 29.5048 127.172 26.6086 129.366 24.3706C131.56 22.1327 134.456 20.904 137.484 20.904C140.512 20.904 143.408 22.1327 145.602 24.3706C147.796 26.6086 148.937 29.5048 148.937 32.6643C148.937 35.6044 148.06 38.0179 146.173 40.3436L143.145 37.0963ZM198.917 32.8398L202.384 48.3301H207.123L199.532 15.7259L190.492 35.4288C190.009 36.5259 189.307 37.9301 188.693 39.6854C187.815 37.4035 187.245 35.9993 186.981 35.4288L177.722 15.7259L170.306 48.3301H175.002L178.381 32.8837C178.688 31.4795 178.907 30.0314 178.951 28.5394C179.346 29.9436 179.873 31.2601 180.487 32.5326L188.693 49.6026L196.899 32.8837C197.601 31.4356 198.084 30.0314 198.347 28.5394C198.654 30.8651 198.786 32.2693 198.917 32.8398ZM225.566 35.736H214.464C215.21 32.7082 217.053 31.2601 220.081 31.2601C223.284 31.2601 225.215 32.7959 225.566 35.736ZM230.393 38.8516V37.974C230.393 31.2162 226.531 27.3107 219.993 27.3107C213.674 27.3107 209.33 31.9183 209.33 38.2373C209.33 44.8634 213.498 49.1638 219.993 49.1638C224.557 49.1638 227.892 47.1892 230.173 43.1081L226.268 40.9141C224.776 43.7225 222.889 44.9073 219.905 44.9073C216.526 44.9073 214.376 42.6693 214.157 38.8516H230.393ZM249.686 15.1116V31.3478C248.589 28.7588 246.176 27.3107 242.841 27.3107C237.487 27.3107 233.713 31.6111 233.713 38.1495C233.713 45.0828 237.311 49.1638 242.972 49.1638C245.825 49.1638 248.019 48.0229 249.686 45.6972V48.3301H254.338V15.1116H249.686ZM249.818 38.1056C249.818 42.406 247.404 45.0389 244.157 45.0389C240.646 45.0389 238.584 42.6254 238.584 38.2812C238.584 33.9807 240.734 31.4356 244.245 31.4356C247.711 31.4356 249.818 33.8491 249.818 38.1056ZM260.965 48.3301H265.617V28.0128H260.965V48.3301ZM260.351 19.2365C260.351 20.8162 261.667 22.1765 263.291 22.1765C264.914 22.1765 266.187 20.904 266.187 19.2365C266.187 17.569 264.914 16.3403 263.291 16.3403C261.667 16.3403 260.351 17.6567 260.351 19.2365ZM286.843 38.1056C286.843 42.406 284.386 45.0389 281.182 45.0389C277.672 45.0389 275.609 42.6254 275.609 38.2812C275.609 33.9807 277.759 31.4356 281.27 31.4356C284.737 31.4356 286.843 33.8491 286.843 38.1056ZM291.363 48.3301V28.0128H286.711V31.3478C285.614 28.7588 283.201 27.3107 279.866 27.3107C274.512 27.3107 270.738 31.6111 270.738 38.1495C270.738 45.0828 274.337 49.1638 279.997 49.1638C282.85 49.1638 285.044 48.0229 286.711 45.6972V48.3301H291.363Z" fill="#2572FF"></path></svg>